<svg width="193.451" height="38.804" viewBox="0 0 193.451 38.804" xmlns="http://www.w3.org/2000/svg"><g id="svgGroup" stroke-linecap="round" fill-rule="evenodd" font-size="9pt" stroke="#000000" stroke-width="0.25mm" fill="#000000" style="stroke:#000000;stroke-width:0.25mm;fill:#000000"><path d="M 189.6 14 Q 191.1 14 192.275 16.075 Q 193.45 18.15 193.45 20.775 Q 193.45 23.4 192.525 27.6 Q 191.6 31.8 190.05 35.3 Q 188.5 38.8 187 38.8 Q 185.95 38.8 185.95 37.425 Q 185.95 36.05 187.675 30.675 Q 189.4 25.3 189.4 22.125 Q 189.4 18.95 188.4 18.95 Q 187.15 18.95 185.525 21.15 Q 183.9 23.35 182.05 26.45 Q 180.2 29.55 180.05 29.775 Q 179.9 30 179.675 30.4 Q 179.45 30.8 179.175 31.25 Q 178.9 31.7 177.775 33.95 Q 176.65 36.2 175.8 37.475 Q 174.95 38.75 174.325 38.75 Q 173.7 38.75 172.95 37.95 Q 172.2 37.15 172.2 36.45 Q 172.2 35.75 173.1 33.55 Q 175.7 27.05 175.7 21.45 Q 175.7 20.4 175.25 19.675 Q 174.8 18.95 174.25 18.95 Q 173.7 18.95 173.1 19.425 Q 172.5 19.9 171.6 21.125 Q 170.7 22.35 170 23.45 Q 169.3 24.55 167.875 26.875 Q 166.45 29.2 165.725 30.325 Q 165 31.45 164.05 32.925 Q 163.1 34.4 162.575 35.2 Q 162.05 36 161.4 36.95 Q 160.05 38.8 159.425 38.8 Q 158.8 38.8 157.8 37.675 Q 156.8 36.55 156.8 35.975 Q 156.8 35.4 157 34.55 Q 157.2 33.7 157.425 32.9 Q 157.65 32.1 158.125 30.525 Q 158.6 28.95 159.225 26.825 Q 159.85 24.7 160.175 20.975 Q 160.5 17.25 160.65 15.525 Q 160.8 13.8 161.5 13.8 Q 162.6 13.8 163.675 14.95 Q 164.75 16.1 164.75 17.25 Q 164.75 21.65 161.45 31.75 Q 167.05 21.25 168.5 19.3 Q 169.95 17.35 171 16.15 Q 172.95 14 174.95 14 Q 176.15 14 177.825 16.075 Q 179.5 18.15 179.5 20.25 Q 179.5 22.35 178.9 25.45 Q 184.8 14 189.6 14 Z M 33.55 1.95 Q 33.55 0 34.75 0 Q 35.7 0 36.775 1.5 Q 37.85 3 37.85 4.4 Q 37.85 7.65 36.225 15.475 Q 34.6 23.3 32 31.1 Q 37 22.05 40.375 18.025 Q 43.75 14 46.15 14 Q 47.45 14 49.175 16.25 Q 50.9 18.5 50.9 20.75 Q 50.9 23 49.65 27.5 Q 46.55 38.8 43.8 38.8 Q 42.7 38.8 42.7 37.3 Q 42.7 35.8 43.9 32.25 Q 46.55 24.5 46.55 21.8 Q 46.55 20.9 46.1 20.3 Q 45.65 19.7 45 19.7 Q 44.35 19.7 43.4 20.4 Q 42.45 21.1 41.1 22.85 Q 39.4 25.1 37.575 27.9 Q 35.75 30.7 35.375 31.275 Q 35 31.85 34.075 33.35 Q 33.15 34.85 32.7 35.575 Q 32.25 36.3 31.6 37.15 Q 30.45 38.8 29.85 38.8 Q 29.25 38.8 28.25 37.675 Q 27.25 36.55 27.25 35.775 Q 27.25 35 27.8 32.85 Q 30.3 23.25 30.95 19.7 Q 33.55 6.7 33.55 1.95 Z M 112.9 1.95 Q 112.9 0 114.1 0 Q 115.05 0 116.125 1.5 Q 117.2 3 117.2 4.4 Q 117.2 7.65 115.575 15.475 Q 113.95 23.3 111.35 31.1 Q 116.35 22.05 119.725 18.025 Q 123.1 14 125.5 14 Q 126.8 14 128.525 16.25 Q 130.25 18.5 130.25 20.75 Q 130.25 23 129 27.5 Q 125.9 38.8 123.15 38.8 Q 122.05 38.8 122.05 37.3 Q 122.05 35.8 123.25 32.25 Q 125.9 24.5 125.9 21.8 Q 125.9 20.9 125.45 20.3 Q 125 19.7 124.35 19.7 Q 123.7 19.7 122.75 20.4 Q 121.8 21.1 120.45 22.85 Q 118.75 25.1 116.925 27.9 Q 115.1 30.7 114.725 31.275 Q 114.35 31.85 113.425 33.35 Q 112.5 34.85 112.05 35.575 Q 111.6 36.3 110.95 37.15 Q 109.8 38.8 109.2 38.8 Q 108.6 38.8 107.6 37.675 Q 106.6 36.55 106.6 35.775 Q 106.6 35 107.15 32.85 Q 109.65 23.25 110.3 19.7 Q 112.9 6.7 112.9 1.95 Z M 10.2 8.8 L 10.2 8.95 Q 10.2 12.35 8.35 19.2 Q 8.65 19.25 10.375 19.25 Q 12.1 19.25 15 19 Q 17.9 18.75 19.375 18.75 Q 20.85 18.75 20.85 19.45 Q 20.85 21.2 16.75 22.05 Q 12.65 22.9 7.25 22.9 Q 4.55 31.45 4.55 33.25 Q 4.55 33.85 4.925 34.225 Q 5.3 34.6 5.9 34.6 Q 11.65 34.6 18.6 32.75 Q 20.85 32.15 21.2 32.15 Q 21.95 32.15 21.95 33.2 Q 21.95 35 16.425 36.9 Q 10.9 38.8 5.75 38.8 Q 3.45 38.8 1.725 37.45 Q 0 36.1 0 34.05 Q 0 32 1.475 27.05 Q 2.95 22.1 4.45 16.5 Q 5.95 10.9 5.95 7.05 Q 5.95 6.5 6.15 5.9 Q 7 4.05 17.05 4.05 Q 27.1 4.05 27.1 5.5 Q 27.1 6.5 24.95 6.85 Q 23.15 7.2 20.175 7.475 Q 17.2 7.75 16 7.875 Q 14.8 8 10.2 8.8 Z M 60.05 33.8 Q 60.05 34.75 61.15 34.75 Q 63.05 34.75 65.775 33.675 Q 68.5 32.6 68.8 32.6 Q 69.7 32.6 69.7 33.55 Q 69.7 35 66.725 36.9 Q 63.75 38.8 61.325 38.8 Q 58.9 38.8 57.3 37.475 Q 55.7 36.15 55.7 34.75 Q 55.7 33.35 56.3 31.175 Q 56.9 29 58.025 25.425 Q 59.15 21.85 59.8 19.5 Q 57.45 20.05 56.65 20.05 Q 55.85 20.05 55.075 19.225 Q 54.3 18.4 54.3 17.65 Q 54.3 16.45 60.8 15.35 Q 61.7 11.2 61.7 8 Q 61.7 6.5 62.7 6.5 Q 63.55 6.5 64.8 7.575 Q 66.05 8.65 66.05 10 Q 66.05 11.35 65.2 14.75 Q 68.05 14.5 69.75 14.5 Q 72.75 14.5 72.75 15.8 Q 72.75 16.55 71.125 17.05 Q 69.5 17.55 64.3 18.6 Q 63.25 22.55 61.65 27.625 Q 60.05 32.7 60.05 33.8 Z M 100 14 Q 101.7 14 103.2 15.875 Q 104.7 17.75 104.7 19.15 Q 104.7 20 103.9 20 Q 103.35 20 102.2 19.125 Q 101.05 18.25 99.85 18.25 Q 98.65 18.25 96.075 19.65 Q 93.5 21.05 93.5 22.6 Q 93.5 23.75 98.1 26.55 Q 99.85 27.65 101.275 29.375 Q 102.7 31.1 102.7 33.075 Q 102.7 35.05 99.975 36.925 Q 97.25 38.8 93.625 38.8 Q 90 38.8 87.225 37.05 Q 84.45 35.3 84.45 33.75 Q 84.45 33.1 84.775 32.725 Q 85.1 32.35 85.6 32.35 Q 86.1 32.35 87 33 Q 89.7 34.95 92.625 34.95 Q 95.55 34.95 96.85 34.275 Q 98.15 33.6 98.15 32.475 Q 98.15 31.35 96.7 30.075 Q 95.25 28.8 93.525 27.8 Q 91.8 26.8 90.35 25.35 Q 88.9 23.9 88.9 22.4 Q 88.9 19.75 93.075 16.875 Q 97.25 14 100 14 Z M 147.1 14 Q 149.35 14 151.25 16.275 Q 153.15 18.55 153.15 20.375 Q 153.15 22.2 151.9 24.1 Q 152.5 24.85 152.5 25.4 Q 152.5 26.8 151.875 30.2 Q 151.25 33.6 151.125 34.65 Q 151 35.7 150.9 36.325 Q 150.8 36.95 150.65 37.55 Q 150.45 38.8 149.75 38.8 Q 148.85 38.8 148.275 37.225 Q 147.7 35.65 147.6 33.15 Q 143.15 38.8 139.35 38.8 Q 137.05 38.8 134.825 36.825 Q 132.6 34.85 132.6 32.75 Q 132.6 29.75 134.8 25.325 Q 137 20.9 140.5 17.45 Q 144 14 147.1 14 Z M 79.95 14 Q 80.9 14 81.75 15.15 Q 82.6 16.3 82.6 17.4 Q 82.6 18.5 81.15 23.975 Q 79.7 29.45 77.5 36.25 Q 76.65 38.75 75.35 38.75 Q 74.65 38.75 74.15 38.175 Q 73.65 37.6 73.65 36.875 Q 73.65 36.15 74.025 34.575 Q 74.4 33 75.125 30.375 Q 75.85 27.75 76.275 26.1 Q 76.7 24.45 77.15 22.375 Q 77.6 20.3 77.875 19.025 Q 78.15 17.75 78.5 16.45 Q 79.2 14 79.95 14 Z M 149.4 22.85 Q 148.7 23 148.55 23.75 Q 147.4 28.3 144.45 31.475 Q 141.5 34.65 139.15 34.65 Q 138.2 34.65 137.5 34.125 Q 136.8 33.6 136.8 32.75 Q 136.8 30.7 138.6 27.2 Q 140.4 23.7 143 20.925 Q 145.6 18.15 147.55 18.15 Q 149.4 18.15 149.4 22.8 L 149.4 22.85 Z M 80.2 6.9 Q 80.2 5.9 81 5 Q 81.8 4.1 82.625 4.1 Q 83.45 4.1 84.6 6.125 Q 85.75 8.15 85.75 9.5 Q 85.75 10 85.3 10.4 Q 84.85 10.8 84.35 10.8 Q 83.15 10.8 81.675 9.35 Q 80.2 7.9 80.2 6.9 Z"/></g></svg>